<?xml version="1.0" standalone="no"?>
<!DOCTYPE svg PUBLIC "-//W3C//DTD SVG 20010904//EN"
 "http://www.w3.org/TR/2001/REC-SVG-20010904/DTD/svg10.dtd">
<svg version="1.0" xmlns="http://www.w3.org/2000/svg"
 width="1024.000000pt" height="1024.000000pt" viewBox="0 0 1024.000000 1024.000000"
 preserveAspectRatio="xMidYMid meet">

<g transform="translate(0.000000,1024.000000) scale(0.100000,-0.100000)"
fill="#000000" stroke="none">
<path d="M4985 8964 c-217 -21 -276 -28 -380 -44 -579 -92 -1150 -314 -1656
-647 -468 -306 -887 -737 -1193 -1227 -308 -492 -477 -976 -568 -1626 -20
-149 -18 -728 5 -900 65 -506 169 -866 366 -1276 357 -742 911 -1326 1637
-1727 108 -60 172 -91 338 -166 247 -113 633 -231 926 -285 299 -54 381 -61
760 -61 375 0 499 11 789 66 528 100 1090 332 1536 633 544 367 983 861 1282
1443 104 202 158 330 233 553 92 273 155 555 192 855 18 149 18 743 0 880 -65
485 -191 895 -402 1310 -358 703 -900 1278 -1564 1660 -507 290 -1012 461
-1586 535 -157 20 -602 35 -715 24z m470 -234 c542 -45 997 -167 1450 -390
647 -319 1126 -735 1511 -1315 217 -325 381 -683 493 -1070 94 -327 141 -759
122 -1126 -29 -560 -140 -1015 -366 -1494 -102 -215 -308 -549 -327 -530 -3 3
-5 -1 -5 -8 0 -23 -64 -108 -75 -101 -7 4 -8 2 -4 -4 4 -7 2 -17 -3 -24 -6 -7
-22 -28 -37 -46 -14 -17 -30 -30 -35 -27 -5 4 -7 0 -4 -7 6 -18 -52 -81 -67
-72 -7 5 -8 3 -4 -5 9 -14 -22 -53 -35 -45 -5 3 -6 -1 -3 -9 3 -9 -45 -62
-128 -142 l-133 -128 -9 96 c-8 94 -8 98 17 135 114 173 167 386 167 680 0
217 -22 393 -120 957 -51 290 -118 726 -166 1070 -63 462 -96 625 -175 877
-90 289 -242 583 -404 782 l-44 55 34 57 c58 97 80 175 79 289 0 66 -6 121
-18 160 -72 243 -288 420 -538 441 -189 16 -396 -74 -506 -220 l-22 -29 -87
31 c-492 171 -1033 173 -1544 6 l-105 -35 -80 78 c-161 160 -363 209 -579 142
-117 -36 -182 -75 -266 -158 -131 -132 -186 -271 -176 -451 6 -109 29 -181 82
-256 19 -27 35 -53 35 -58 0 -5 -24 -41 -53 -80 -233 -311 -373 -633 -471
-1081 -37 -170 -46 -223 -101 -600 -47 -325 -135 -797 -261 -1405 -83 -399
-98 -636 -55 -855 26 -129 94 -284 171 -386 l48 -64 -5 -80 c-3 -44 -9 -83
-12 -88 -11 -12 -189 161 -301 293 -258 301 -416 538 -562 840 -170 351 -261
648 -332 1080 -30 180 -47 551 -35 766 27 529 141 965 374 1439 143 289 272
483 539 805 84 102 338 345 481 460 346 278 747 499 1165 640 375 127 670 185
1090 213 105 8 283 6 395 -3z m-1514 -1130 c73 -14 148 -52 206 -104 l47 -43
-42 -22 c-177 -90 -368 -224 -535 -375 -60 -54 -109 -96 -111 -95 -82 122 -88
303 -13 429 55 94 159 171 270 200 85 22 106 23 178 10z m2728 -5 c130 -34
244 -123 295 -228 52 -108 55 -244 7 -353 l-21 -46 -87 79 c-49 43 -106 92
-128 109 -175 134 -236 174 -386 250 l-91 46 39 40 c96 99 238 139 372 103z
m-1124 -100 c624 -93 1163 -429 1500 -935 193 -290 318 -614 394 -1025 20
-107 32 -195 107 -729 20 -143 69 -453 110 -690 100 -574 131 -794 140 -967
16 -335 -55 -584 -211 -741 -246 -247 -597 -364 -993 -330 -507 44 -860 261
-985 606 -25 68 -31 100 -34 201 -4 106 -2 128 19 190 22 65 26 71 73 95 43
22 62 25 150 25 87 0 109 -4 169 -28 69 -28 70 -28 95 -9 34 25 37 52 10 85
-45 59 -195 104 -299 92 l-55 -7 30 32 c38 40 149 95 222 111 60 12 207 8 392
-10 163 -16 291 22 378 111 53 54 61 85 33 121 -33 41 -69 36 -130 -18 -84
-74 -162 -88 -355 -60 -55 8 -130 15 -166 15 l-66 0 -6 45 c-13 117 -99 184
-267 211 -52 8 -118 19 -146 25 l-50 10 -59 127 c-88 191 -129 258 -183 297
-99 72 -208 72 -312 0 -52 -36 -87 -93 -166 -267 -36 -79 -69 -147 -74 -152
-5 -5 -69 -19 -142 -31 -73 -12 -151 -27 -174 -34 -63 -17 -119 -63 -146 -120
l-23 -50 -41 32 -40 31 4 77 c4 66 1 84 -20 130 -29 63 -71 108 -125 135 -29
15 -60 19 -133 19 -86 0 -101 -3 -160 -31 -36 -17 -136 -79 -222 -137 -87 -59
-197 -125 -245 -147 -129 -60 -135 -64 -146 -81 -16 -26 0 -67 34 -84 27 -15
35 -15 86 0 93 27 174 71 349 187 92 61 186 119 208 129 47 21 120 24 156 6
32 -16 60 -72 60 -120 l0 -39 -62 7 c-122 13 -313 -49 -328 -105 -4 -14 -3
-35 1 -47 14 -39 38 -42 123 -17 89 27 221 32 287 12 50 -14 150 -104 183
-164 l26 -46 -38 7 c-126 26 -192 20 -290 -25 -72 -34 -94 -67 -70 -110 18
-33 47 -36 116 -9 111 42 254 21 296 -44 23 -36 29 -124 12 -207 -21 -109 -49
-176 -116 -278 -211 -320 -624 -540 -972 -518 -229 14 -431 134 -539 317 -88
152 -126 336 -115 569 7 173 25 288 91 590 113 515 166 802 250 1355 103 673
158 885 309 1200 115 239 239 416 413 587 126 124 164 157 293 248 302 215
669 349 1070 389 127 13 379 6 515 -14z m-293 -3286 c18 -10 54 -79 181 -352
44 -95 45 -96 256 -127 74 -11 145 -27 158 -35 28 -19 48 -58 40 -79 -3 -8
-43 -34 -89 -57 -195 -100 -369 -352 -395 -572 l-6 -47 -85 46 c-101 55 -116
55 -217 -7 -94 -57 -208 -109 -240 -109 -33 0 -71 41 -77 82 -6 36 11 105 46
195 13 34 27 79 31 101 6 36 4 41 -38 78 -24 21 -94 74 -155 117 -122 85 -162
128 -162 173 0 33 21 69 50 84 11 6 94 21 184 35 91 13 174 30 185 36 26 17
46 55 126 234 82 185 103 215 151 215 19 0 45 -5 56 -11z m-714 -894 c15 -14
48 -40 75 -56 26 -17 47 -36 47 -42 0 -6 -12 -49 -27 -96 -58 -189 -19 -331
109 -395 93 -47 173 -33 354 60 l109 55 102 -48 102 -48 22 -70 c25 -85 105
-239 164 -315 140 -182 400 -336 683 -406 174 -42 316 -57 492 -51 300 12 552
93 769 248 l80 57 3 -85 c2 -47 1 -88 -2 -92 -7 -10 -276 -187 -370 -243 -109
-65 -374 -197 -525 -261 -317 -135 -681 -228 -1070 -273 -207 -25 -660 -25
-870 0 -492 57 -923 188 -1375 416 -176 90 -385 213 -504 298 -79 56 -81 59
-84 102 -1 25 1 69 5 98 l8 52 45 -25 c135 -75 225 -102 371 -112 306 -19 683
131 930 372 229 223 339 446 340 690 1 90 -3 122 -18 178 -6 24 3 21 35 -8z"/>
<path d="M8006 2443 c-6 -14 -5 -15 5 -6 7 7 10 15 7 18 -3 3 -9 -2 -12 -12z"/>
<path d="M4415 6863 c-38 -14 -80 -34 -92 -46 -47 -42 -18 -120 45 -120 51 0
173 43 198 70 37 40 28 84 -23 111 -30 17 -48 15 -128 -15z"/>
<path d="M5933 6880 c-46 -19 -57 -83 -20 -118 31 -29 172 -75 207 -67 34 7
46 20 55 58 11 43 -15 71 -92 99 -87 33 -123 39 -150 28z"/>
<path d="M4345 6401 c-109 -49 -165 -189 -119 -299 52 -126 207 -182 329 -120
61 32 87 59 114 118 37 82 23 175 -37 242 -50 56 -102 78 -182 78 -42 0 -79
-7 -105 -19z"/>
<path d="M5900 6393 c-72 -38 -112 -100 -118 -183 -2 -32 1 -75 8 -95 16 -48
72 -111 123 -137 89 -45 224 -15 292 65 45 52 58 95 53 168 -5 71 -41 128
-108 174 -38 25 -56 30 -120 33 -67 3 -81 1 -130 -25z"/>
<path d="M5073 6065 c-212 -46 -301 -177 -200 -292 37 -42 146 -97 226 -114
82 -17 251 -7 331 20 144 49 226 139 201 221 -23 78 -110 135 -249 165 -88 18
-224 18 -309 0z"/>
<path d="M5695 5568 c-111 -128 -162 -164 -283 -199 -89 -27 -241 -35 -339
-19 -43 6 -119 27 -169 46 -51 19 -103 34 -117 34 -48 0 -73 -52 -47 -100 16
-30 86 -66 185 -96 84 -26 103 -28 270 -28 203 -1 254 9 385 71 119 57 250
196 250 265 0 36 -32 68 -69 68 -21 0 -38 -11 -66 -42z"/>
</g>
</svg>
